<?xml version="1.0" encoding="UTF-8"?>
<!-- Generator: Adobe Illustrator 24.2.3, SVG Export Plug-In . SVG Version: 6.00 Build 0)  -->
<svg xmlns="http://www.w3.org/2000/svg" xmlns:xlink="http://www.w3.org/1999/xlink" version="1.1" id="Capa_1" x="0px" y="0px" viewBox="0 0 512 512" style="enable-background:new 0 0 512 512;" xml:space="preserve" width="512" height="512">
<g>
	<path style="fill:#33CCCC;" d="M501.012,197.392l-45.505-0.048c-1.101-12.691-4.119-25.274-9.091-37.313   c-4.988-12.078-11.688-23.118-19.828-32.872l32.167-32.1c4.3-4.291,4.308-11.256,0.016-15.556c-4.29-4.3-11.255-4.308-15.556-0.016   l-32.158,32.09c-9.765-8.204-20.831-14.962-32.947-19.995c-12.044-5.004-24.563-8.07-37.191-9.217l0.048-45.663   c0.006-6.075-4.913-11.005-10.988-11.012c-0.004,0-0.008,0-0.012,0c-6.07,0-10.994,4.917-11,10.988l-0.048,45.637   c-12.732,1.098-25.36,4.147-37.51,9.165c-12.029,4.968-23.048,11.656-32.794,19.786L216.51,79.092   c-4.29-4.3-11.255-4.307-15.556-0.016c-4.3,4.291-4.308,11.256-0.016,15.556l32.084,32.151   c-7.799,9.268-14.294,19.711-19.244,31.099c0,0,22.375,4.145,22.373,4.039c11.222-22.698,30.107-40.381,53.658-50.107   c25.761-10.639,54.123-10.609,79.862,0.084c12.742,5.293,24.079,12.893,33.577,22.336c0.108,0.118,0.207,0.241,0.321,0.356   c0.102,0.103,0.213,0.191,0.318,0.288c9.39,9.503,16.943,20.829,22.196,33.55c11.619,28.134,10.381,59.86-3.395,87.044   l19.624,9.944c7.38-14.564,11.782-30.206,13.182-46.072l45.495,0.048c0.004,0,0.008,0,0.012,0c6.07,0,10.994-4.917,11-10.988   C512.006,202.329,507.086,197.398,501.012,197.392z"/>
	<path d="M389.077,240.702c-10.098,0-20.069,1.221-29.767,3.639c-9.383-25.037-25.881-47.372-47.245-63.713   c-25.135-19.225-55.188-29.387-86.911-29.387c-30.979,0-60.464,9.734-85.267,28.151c-22.62,16.796-39.506,39.363-49.118,65.549   c-24.608,6.655-46.827,21.016-63.083,40.897C9.833,307.672,0,335.255,0,363.506c0,67.715,55.101,122.805,122.829,122.805h266.249   c67.728,0,122.829-55.09,122.829-122.805C511.906,295.792,456.805,240.702,389.077,240.702z M389.077,464.311H122.829   C67.231,464.311,22,419.09,22,363.506c0-47.198,33.447-88.642,79.53-98.545c3.855-0.828,6.972-3.657,8.169-7.413   c16.078-50.426,62.476-84.307,115.456-84.307c51.051,0,96.773,32.494,113.951,79.945c-8.415,4.099-16.388,9.158-23.701,15.155   c-4.697,3.852-5.382,10.783-1.53,15.481c2.175,2.652,5.33,4.025,8.512,4.025c2.454,0,4.924-0.817,6.969-2.495   c17.634-14.462,39.894-22.587,62.644-22.587c0.077,0,0.144-0.005,0.21-0.01c54.153,1.661,97.697,46.216,97.697,100.751   C489.906,419.09,444.674,464.311,389.077,464.311z"/>
</g>















</svg>
