<?xml version="1.0" encoding="UTF-8"?>
<!-- Generator: Adobe Illustrator 24.2.3, SVG Export Plug-In . SVG Version: 6.00 Build 0)  -->
<svg xmlns="http://www.w3.org/2000/svg" xmlns:xlink="http://www.w3.org/1999/xlink" version="1.1" id="Capa_1" x="0px" y="0px" viewBox="0 0 512 512" style="enable-background:new 0 0 512 512;" xml:space="preserve" width="512" height="512">
<g>
	<path style="fill:#33CCCC;" d="M344.8,133.468c-8.636,0-17.167,1-25.481,2.98c-8.434-21.897-22.98-41.413-41.729-55.754   c-22.418-17.146-49.222-26.21-77.515-26.21c-27.63,0-53.927,8.683-76.049,25.108c-19.994,14.846-34.966,34.748-43.577,57.838   c-21.729,6.021-41.333,18.772-55.714,36.36C8.784,193.298,0,217.939,0,243.178c0,43.253,25.536,82.595,65.056,100.229l8.964-20.092   C42.419,309.215,22,277.76,22,243.178c0-41.066,29.102-77.127,69.199-85.744c3.854-0.829,6.971-3.657,8.169-7.413   c14.023-43.984,54.494-73.536,100.707-73.536c43.902,0,83.3,27.542,98.76,67.982c-7.553,4.089-14.063,8.912-19.897,13.696   c-4.698,3.853-5.383,10.783-1.531,15.481c2.175,2.651,5.331,4.024,8.512,4.024c2.454,0,4.923-0.817,6.969-2.494   c10.033-8.228,18.943-13.507,28.309-16.472c7.655-2.135,15.568-3.234,23.602-3.234c48.376,0,87.732,39.347,87.732,87.71   c0,4.282-0.316,8.606-0.939,12.854l21.767,3.195c0.778-5.302,1.173-10.701,1.173-16.049   C454.532,182.684,405.307,133.468,344.8,133.468z"/>
	<path d="M402.268,238.095c-8.637,0-17.168,1-25.481,2.98c-8.434-21.897-22.98-41.413-41.73-55.754   c-22.417-17.146-49.222-26.21-77.515-26.21c-27.63,0-53.927,8.683-76.049,25.107c-19.994,14.847-34.966,34.749-43.577,57.839   c-21.729,6.021-41.333,18.773-55.714,36.36c-15.95,19.507-24.734,44.149-24.734,69.388c0,60.494,49.226,109.71,109.732,109.71   h235.067C462.774,457.516,512,408.3,512,347.806C512,287.311,462.774,238.095,402.268,238.095z M402.268,435.516H167.2   c-48.376,0-87.732-39.347-87.732-87.71c0-41.067,29.102-77.128,69.199-85.745c3.854-0.829,6.971-3.657,8.169-7.413   c14.023-43.984,54.494-73.536,100.707-73.536c43.902,0,83.3,27.542,98.761,67.982c-7.553,4.089-14.063,8.912-19.897,13.696   c-4.698,3.853-5.383,10.783-1.531,15.481c2.175,2.651,5.331,4.024,8.512,4.024c2.454,0,4.923-0.817,6.969-2.494   c10.033-8.228,18.943-13.508,28.309-16.472c7.655-2.135,15.567-3.234,23.602-3.234c48.376,0,87.732,39.347,87.732,87.711   C490,396.169,450.644,435.516,402.268,435.516z"/>
</g>















</svg>
