<?xml version="1.0" encoding="UTF-8"?>
<!-- Generator: Adobe Illustrator 24.2.3, SVG Export Plug-In . SVG Version: 6.00 Build 0)  -->
<svg xmlns="http://www.w3.org/2000/svg" xmlns:xlink="http://www.w3.org/1999/xlink" version="1.1" id="Capa_1" x="0px" y="0px" viewBox="0 0 512.011 512.011" style="enable-background:new 0 0 512.011 512.011;" xml:space="preserve" width="512" height="512">
<g>
	<path style="fill:#33CCCC;" d="M416.775,270.795c4.646-1.118,9.292-2.518,13.809-4.162c14.709-5.354,28.066-13.231,39.61-23.272   c-3.242,0.261-6.481,0.39-9.707,0.39c-49.906,0.002-96.855-30.824-114.889-80.368c-11.158-30.655-9.71-63.821,4.077-93.388   c9.086-19.484,22.813-35.868,39.893-47.97c-15.303-0.265-30.547,2.288-45.234,7.634c-63.783,23.215-98.049,94.404-76.385,158.692   l-20.848,7.025c-12.393-36.773-9.955-76.314,6.862-111.34c16.846-35.084,46.268-61.737,82.845-75.05   c29.506-10.74,61.024-11.875,91.145-3.288c4.634,1.321,7.868,5.503,7.981,10.32s-2.921,9.146-7.486,10.684   c-0.777,0.262-1.553,0.532-2.327,0.814c-25.136,9.148-45.203,27.536-56.507,51.777c-11.304,24.24-12.49,51.432-3.342,76.565   c9.147,25.133,27.535,45.2,51.775,56.504c24.241,11.304,51.433,12.49,76.565,3.343c0.775-0.282,1.545-0.575,2.31-0.874   c4.485-1.758,9.593-0.391,12.602,3.373c3.009,3.762,3.219,9.045,0.52,13.035c-17.557,25.941-42.431,45.329-71.936,56.067   L416.775,270.795z"/>
	<path d="M389.155,266.359c-10.101,0-20.073,1.222-29.773,3.641c-9.385-25.042-25.887-47.382-47.255-63.726   c-25.139-19.228-55.197-29.392-86.926-29.392c-30.984,0-60.475,9.736-85.282,28.156c-22.624,16.799-39.514,39.37-49.127,65.561   c-24.612,6.656-46.836,21.02-63.096,40.905C9.84,333.342,0.006,360.93,0.006,389.185c0,67.727,55.11,122.826,122.851,122.826   h266.299c67.74,0,122.851-55.1,122.851-122.826C512.005,321.459,456.895,266.359,389.155,266.359z M389.155,490.011H122.856   c-55.609,0-100.851-45.23-100.851-100.826c0-47.208,33.454-88.66,79.548-98.566c3.854-0.828,6.971-3.657,8.169-7.413   c16.08-50.437,62.487-84.324,115.479-84.324c50.834,0,96.391,32.209,113.749,79.324c-7.844,4.103-15.6,9.335-23.48,15.798   c-4.697,3.853-5.382,10.784-1.53,15.481c2.175,2.652,5.331,4.025,8.513,4.025c2.454,0,4.923-0.817,6.969-2.495   c13.007-10.668,24.782-17.104,37.582-20.195c0.094-0.021,1.159-0.258,1.597-0.354c6.729-1.395,13.603-2.108,20.555-2.108   c55.609,0,100.851,45.23,100.851,100.826S444.764,490.011,389.155,490.011z"/>
</g>















</svg>
