<?xml version="1.0" encoding="UTF-8"?>
<!-- Generator: Adobe Illustrator 24.2.3, SVG Export Plug-In . SVG Version: 6.00 Build 0)  -->
<svg xmlns="http://www.w3.org/2000/svg" xmlns:xlink="http://www.w3.org/1999/xlink" version="1.1" id="Capa_1" x="0px" y="0px" viewBox="0 0 512.002 512.002" style="enable-background:new 0 0 512.002 512.002;" xml:space="preserve" width="512" height="512">
<g>
	<g>
		<path style="fill:#33CCCC;" d="M59.101,354.365c-1.902,0-3.83-0.494-5.587-1.533c-5.229-3.091-6.963-9.837-3.872-15.067    l10.157-17.183c3.092-5.229,9.835-6.964,15.067-3.872c5.229,3.091,6.963,9.837,3.872,15.067L68.581,348.96    C66.527,352.433,62.862,354.365,59.101,354.365z"/>
		<path style="fill:#33CCCC;" d="M104.312,432.552c-1.902,0-3.83-0.494-5.587-1.533c-5.229-3.091-6.963-9.837-3.872-15.067    l10.157-17.183c3.093-5.229,9.836-6.964,15.067-3.872c5.229,3.091,6.963,9.837,3.872,15.067l-10.157,17.183    C111.739,430.621,108.074,432.552,104.312,432.552z"/>
		<path style="fill:#33CCCC;" d="M12.897,432.552c-1.902,0-3.83-0.494-5.587-1.533c-5.229-3.091-6.963-9.837-3.872-15.067    l10.157-17.183c3.092-5.229,9.836-6.964,15.067-3.872c5.229,3.091,6.963,9.837,3.872,15.067l-10.157,17.183    C20.324,430.621,16.659,432.552,12.897,432.552z"/>
		<path style="fill:#33CCCC;" d="M195.728,432.552c-1.902,0-3.83-0.494-5.587-1.533c-5.229-3.091-6.963-9.837-3.872-15.067    l10.157-17.183c3.092-5.229,9.835-6.964,15.067-3.872c5.229,3.091,6.963,9.837,3.872,15.067l-10.157,17.183    C203.154,430.621,199.489,432.552,195.728,432.552z"/>
		<path style="fill:#33CCCC;" d="M242.327,353.75c-1.902,0-3.83-0.494-5.587-1.533c-5.229-3.091-6.963-9.837-3.872-15.067    l10.157-17.183c3.092-5.229,9.836-6.965,15.067-3.872c5.229,3.091,6.963,9.837,3.872,15.067l-10.157,17.183    C249.754,351.818,246.089,353.75,242.327,353.75z"/>
		<path style="fill:#33CCCC;" d="M333.742,353.75c-1.902,0-3.83-0.494-5.587-1.533c-5.229-3.091-6.963-9.837-3.872-15.067    l10.157-17.183c3.092-5.229,9.835-6.965,15.067-3.872c5.229,3.091,6.963,9.837,3.872,15.067l-10.157,17.183    C341.169,351.818,337.504,353.75,333.742,353.75z"/>
		<path style="fill:#33CCCC;" d="M150.912,353.75c-1.902,0-3.83-0.494-5.587-1.533c-5.229-3.091-6.963-9.837-3.872-15.067    l10.157-17.183c3.092-5.229,9.835-6.965,15.067-3.872c5.229,3.091,6.963,9.837,3.872,15.067l-10.157,17.183    C158.339,351.818,154.674,353.75,150.912,353.75z"/>
		<path style="fill:#33CCCC;" d="M424.706,354.567c-1.902,0-3.83-0.494-5.587-1.533c-5.229-3.091-6.963-9.837-3.871-15.067    l16.723-28.289c3.091-5.229,9.834-6.964,15.066-3.872c5.229,3.091,6.963,9.837,3.871,15.067l-16.723,28.289    C432.133,352.635,428.468,354.567,424.706,354.567z"/>
		<path style="fill:#33CCCC;" d="M287.174,432.555c-1.902,0-3.83-0.494-5.587-1.533c-5.229-3.091-6.963-9.837-3.872-15.067    l10.157-17.183c3.092-5.229,9.835-6.964,15.067-3.872c5.229,3.091,6.963,9.837,3.872,15.067l-10.157,17.183    C294.601,430.624,290.936,432.555,287.174,432.555z"/>
		<path style="fill:#33CCCC;" d="M378.589,432.555c-1.902,0-3.83-0.494-5.587-1.533c-5.229-3.091-6.963-9.837-3.872-15.067    l10.157-17.183c3.092-5.229,9.836-6.964,15.067-3.872c5.229,3.091,6.963,9.837,3.872,15.067l-10.157,17.183    C386.016,430.624,382.351,432.555,378.589,432.555z"/>
		<path style="fill:#33CCCC;" d="M57.565,511.999c-1.902,0-3.83-0.494-5.587-1.533c-5.229-3.091-6.963-9.837-3.872-15.067    l10.157-17.183c3.092-5.229,9.835-6.964,15.067-3.872c5.229,3.091,6.963,9.837,3.872,15.067l-10.157,17.183    C64.992,510.067,61.327,511.999,57.565,511.999z"/>
		<path style="fill:#33CCCC;" d="M148.98,511.999c-1.902,0-3.83-0.494-5.587-1.533c-5.229-3.091-6.963-9.837-3.872-15.067    l10.157-17.183c3.092-5.229,9.836-6.964,15.067-3.872c5.229,3.091,6.963,9.837,3.872,15.067l-10.157,17.183    C156.407,510.067,152.742,511.999,148.98,511.999z"/>
		<path style="fill:#33CCCC;" d="M240.426,512.002c-1.902,0-3.83-0.494-5.587-1.533c-5.229-3.091-6.963-9.837-3.872-15.067    l10.157-17.183c3.092-5.229,9.836-6.964,15.067-3.872c5.229,3.091,6.963,9.837,3.872,15.067l-10.157,17.183    C247.853,510.07,244.188,512.002,240.426,512.002z"/>
		<path style="fill:#33CCCC;" d="M331.841,512.002c-1.902,0-3.83-0.494-5.587-1.533c-5.229-3.091-6.963-9.837-3.872-15.067    l10.157-17.183c3.092-5.229,9.835-6.964,15.067-3.872c5.229,3.091,6.963,9.837,3.872,15.067l-10.157,17.183    C339.268,510.07,335.603,512.002,331.841,512.002z"/>
	</g>
	<path d="M389.036,89.4c-10.089,0-20.053,1.22-29.742,3.636c-9.378-25.02-25.864-47.338-47.214-63.667   C286.961,10.155,256.926,0,225.223,0c-30.96,0-60.427,9.729-85.214,28.134c-22.605,16.785-39.48,39.337-49.087,65.504   c-24.592,6.651-46.796,21.003-63.041,40.872C10.038,156.331,0.212,183.897,0.212,212.13c0,67.673,55.067,122.729,122.754,122.729   h266.07c67.687,0,122.754-55.056,122.754-122.729S456.723,89.4,389.036,89.4z M389.036,312.86h-266.07   c-55.556,0-100.754-45.187-100.754-100.729c0-47.163,33.422-88.576,79.471-98.472c3.854-0.828,6.971-3.657,8.169-7.413   C125.917,55.855,172.281,22,225.223,22c51.01,0,96.697,32.465,113.865,79.876c-8.408,4.096-16.373,9.155-23.68,15.147   c-4.697,3.852-5.383,10.783-1.53,15.48c2.175,2.652,5.331,4.025,8.513,4.025c2.453,0,4.923-0.817,6.969-2.495   c17.603-14.437,39.887-22.573,62.597-22.589c54.211,1.55,97.835,46.119,97.835,100.685   C489.79,267.673,444.592,312.86,389.036,312.86z"/>
</g>















</svg>
