<?xml version="1.0" encoding="UTF-8"?>
<!-- Generator: Adobe Illustrator 24.2.3, SVG Export Plug-In . SVG Version: 6.00 Build 0)  -->
<svg xmlns="http://www.w3.org/2000/svg" xmlns:xlink="http://www.w3.org/1999/xlink" version="1.1" id="Capa_1" x="0px" y="0px" viewBox="0 0 512 512" style="enable-background:new 0 0 512 512;" xml:space="preserve" width="512" height="512">
<g>
	<path d="M367.522,97.321c-8.068,0-16.043,0.916-23.819,2.729c-8.063-20.679-21.853-39.104-39.586-52.668   c-21.363-16.34-46.905-24.977-73.867-24.977c-26.33,0-51.39,8.274-72.471,23.927c-18.975,14.089-33.203,32.958-41.424,54.847   c-20.612,5.773-39.201,17.9-52.854,34.597c-15.211,18.603-23.588,42.104-23.588,66.173c0,33.556,15.885,63.469,40.527,82.627H11   c-6.075,0-11,4.925-11,11s4.925,11,11,11h356.522c57.703,0,104.648-46.936,104.648-104.627S425.226,97.321,367.522,97.321z    M367.522,284.576H144.56c-45.572,0-82.648-37.066-82.648-82.627c0-38.687,27.416-72.658,65.188-80.775   c3.855-0.829,6.972-3.657,8.169-7.413c13.226-41.483,51.396-69.355,94.981-69.355c41.456,0,78.656,26.038,93.2,64.254   c-6.642,3.364-12.942,7.445-18.757,12.214c-4.697,3.853-5.383,10.784-1.53,15.481c2.175,2.652,5.331,4.025,8.513,4.025   c2.453,0,4.923-0.817,6.969-2.495c14.512-11.901,32.047-18.387,50.744-18.516c44.712,0.998,80.784,37.644,80.784,82.58   C450.171,247.51,413.095,284.576,367.522,284.576z"/>
	<path style="fill:#33CCCC;" d="M448.864,367.583H92.341c-6.075,0-11-4.925-11-11s4.925-11,11-11h356.523c6.075,0,11,4.925,11,11   S454.939,367.583,448.864,367.583z"/>
	<g>
		<path d="M236.322,428.588H35.701c-6.075,0-11-4.925-11-11s4.925-11,11-11h200.621c6.075,0,11,4.925,11,11    S242.397,428.588,236.322,428.588z"/>
		<path d="M501,428.588H297.328c-6.075,0-11-4.925-11-11s4.925-11,11-11H501c6.075,0,11,4.925,11,11S507.075,428.588,501,428.588z"/>
	</g>
	<g>
		<path style="fill:#33CCCC;" d="M348.424,489.595H147.803c-6.075,0-11-4.925-11-11s4.925-11,11-11h200.621c6.075,0,11,4.925,11,11    S354.499,489.595,348.424,489.595z"/>
	</g>
	<g>
		<path d="M451.144,489.595h-35.188c-6.075,0-11-4.925-11-11s4.925-11,11-11h35.188c6.075,0,11,4.925,11,11    S457.219,489.595,451.144,489.595z"/>
	</g>
</g>















</svg>
