<?xml version="1.0" encoding="UTF-8"?>
<!-- Generator: Adobe Illustrator 24.2.3, SVG Export Plug-In . SVG Version: 6.00 Build 0)  -->
<svg xmlns="http://www.w3.org/2000/svg" xmlns:xlink="http://www.w3.org/1999/xlink" version="1.1" id="Capa_1" x="0px" y="0px" viewBox="0 0 512.058 512.058" style="enable-background:new 0 0 512.058 512.058;" xml:space="preserve" width="512" height="512">
<g>
	<path d="M209.983,512.057c-30.251,0-60.39-6.621-88.623-19.786c-50.837-23.706-89.399-65.79-108.584-118.5   C-6.409,321.062-3.92,264.036,19.787,213.199c23.706-50.837,65.79-89.4,118.499-108.584c41.841-15.228,86.531-16.84,129.241-4.664   c4.634,1.321,7.868,5.503,7.981,10.32s-2.921,9.146-7.487,10.684c-1.166,0.393-2.331,0.798-3.496,1.222   c-77.885,28.349-118.188,114.778-89.839,192.665c13.732,37.73,41.336,67.854,77.726,84.823   c36.389,16.969,77.209,18.751,114.938,5.019c0.001,0,0.002,0,0.003-0.001c1.162-0.423,2.315-0.861,3.462-1.31   c4.484-1.757,9.593-0.39,12.602,3.373c3.009,3.763,3.219,9.045,0.52,13.035c-24.894,36.783-60.165,64.275-102.003,79.502   C258.496,507.812,234.203,512.057,209.983,512.057z M210.057,113.877c-21.708,0-43.372,3.812-64.246,11.41   c-47.188,17.175-84.863,51.698-106.086,97.209c-21.222,45.511-23.451,96.563-6.275,143.75   c17.175,47.188,51.697,84.863,97.208,106.085c45.512,21.223,96.563,23.452,143.75,6.276c26.83-9.765,50.644-25.163,70.183-45.212   c-34.217,5.844-69.351,1.187-101.477-13.794c-41.716-19.452-73.358-53.985-89.102-97.237   c-28.859-79.292,4.343-166.303,74.671-207.551C222.484,114.19,216.267,113.877,210.057,113.877z"/>
	<path style="fill:#33CCCC;" d="M375.909,169.123c-2.281,0-4.55-0.708-6.467-2.101c-3.388-2.461-5.084-6.632-4.376-10.758   l8.152-47.53l-34.531-33.661c-2.999-2.923-4.078-7.294-2.784-11.276c1.294-3.982,4.736-6.884,8.88-7.486l47.722-6.934   l21.342-43.244c1.854-3.755,5.677-6.132,9.864-6.132s8.011,2.377,9.864,6.132l21.342,43.244l47.723,6.934   c4.144,0.602,7.586,3.504,8.88,7.486c1.294,3.982,0.215,8.354-2.784,11.276l-34.531,33.661l8.151,47.53   c0.708,4.127-0.989,8.297-4.376,10.759c-3.39,2.461-7.88,2.785-11.585,0.837l-42.684-22.44l-42.684,22.44   C379.417,168.705,377.66,169.123,375.909,169.123z M423.71,121.991c1.758,0,3.517,0.421,5.119,1.264l28.074,14.76l-5.361-31.262   c-0.612-3.568,0.571-7.209,3.164-9.736l22.712-22.14l-31.389-4.561c-3.582-0.521-6.68-2.771-8.282-6.018L423.71,35.856   l-14.037,28.443c-1.603,3.247-4.7,5.497-8.282,6.018l-31.388,4.561l22.712,22.14c2.593,2.527,3.776,6.168,3.164,9.736   l-5.362,31.262l28.074-14.759C420.194,122.413,421.953,121.991,423.71,121.991z"/>
	<path style="fill:#33CCCC;" d="M269.197,334.438c-2.281,0-4.55-0.708-6.467-2.101c-3.387-2.461-5.084-6.632-4.376-10.759   l6.222-36.276l-26.355-25.691c-2.999-2.923-4.078-7.294-2.784-11.276c1.294-3.982,4.736-6.884,8.88-7.486l36.424-5.293   l16.289-33.005c1.854-3.755,5.677-6.132,9.864-6.132s8.011,2.377,9.864,6.132l16.289,33.005l36.424,5.293   c4.144,0.602,7.586,3.504,8.88,7.487c1.294,3.982,0.215,8.354-2.784,11.276l-26.356,25.691l6.223,36.276   c0.708,4.127-0.988,8.298-4.376,10.759c-3.387,2.461-7.878,2.786-11.585,0.837l-32.578-17.127l-32.578,17.127   C272.706,334.021,270.948,334.438,269.197,334.438z M269.536,259.415l14.537,14.17c2.593,2.527,3.776,6.168,3.164,9.736   l-3.432,20.009l17.969-9.447c3.205-1.685,7.033-1.685,10.238,0l17.969,9.446l-3.433-20.008c-0.612-3.568,0.571-7.209,3.164-9.737   l14.537-14.17l-20.09-2.919c-3.583-0.521-6.68-2.771-8.282-6.018l-8.984-18.205l-8.984,18.205   c-1.603,3.247-4.699,5.497-8.282,6.018L269.536,259.415z"/>
</g>















</svg>
