<?xml version="1.0" encoding="UTF-8"?>
<!-- Generator: Adobe Illustrator 24.2.3, SVG Export Plug-In . SVG Version: 6.00 Build 0)  -->
<svg xmlns="http://www.w3.org/2000/svg" xmlns:xlink="http://www.w3.org/1999/xlink" version="1.1" id="Capa_1" x="0px" y="0px" viewBox="0 0 512 512" style="enable-background:new 0 0 512 512;" xml:space="preserve" width="512" height="512">
<g>
	<g>
		<g>
			<path d="M268.292,511.998c-1.864,0-3.753-0.475-5.484-1.473c-5.263-3.035-7.069-9.761-4.035-15.024l27.683-48.009     c3.035-5.263,9.76-7.07,15.024-4.035c5.263,3.035,7.069,9.761,4.035,15.024l-27.683,48.009     C275.795,510.022,272.096,511.998,268.292,511.998z"/>
			<path style="fill:#33CCCC;" d="M105.601,511.998c-1.864,0-3.753-0.475-5.484-1.473c-5.263-3.035-7.069-9.761-4.035-15.024     l27.554-47.785c3.035-5.263,9.761-7.07,15.024-4.035c5.263,3.035,7.069,9.761,4.035,15.024l-27.554,47.785     C113.104,510.022,109.404,511.998,105.601,511.998z"/>
		</g>
		<g>
			<path style="fill:#33CCCC;" d="M368.395,479.469c-1.864,0-3.753-0.475-5.484-1.473c-5.263-3.035-7.069-9.761-4.035-15.024     l49.433-85.731c3.034-5.263,9.76-7.069,15.024-4.035c5.263,3.035,7.069,9.761,4.035,15.024l-49.433,85.731     C375.897,477.493,372.198,479.469,368.395,479.469z"/>
			<path style="fill:#33CCCC;" d="M205.706,479.463c-1.864,0-3.753-0.475-5.484-1.473c-5.263-3.035-7.069-9.761-4.035-15.024     l47.982-83.215c3.035-5.263,9.761-7.07,15.024-4.035c5.263,3.035,7.069,9.761,4.035,15.024l-47.982,83.215     C213.209,477.488,209.51,479.463,205.706,479.463z"/>
			<path d="M48.857,478.186c-1.864,0-3.753-0.475-5.484-1.473c-5.263-3.035-7.069-9.761-4.035-15.024l48.406-83.95     c3.034-5.263,9.76-7.07,15.024-4.035c5.263,3.035,7.069,9.761,4.035,15.024l-48.406,83.95     C56.36,476.21,52.661,478.186,48.857,478.186z"/>
		</g>
	</g>
	<path d="M389.149,89.479c-10.1,0-20.073,1.222-29.774,3.641c-9.385-25.042-25.887-47.382-47.254-63.726   c-25.139-19.228-55.197-29.392-86.926-29.392c-30.984,0-60.475,9.736-85.282,28.156c-22.625,16.799-39.514,39.371-49.127,65.561   c-24.613,6.656-46.836,21.02-63.096,40.905C9.834,156.462,0,184.049,0,212.305c0,67.727,55.11,122.826,122.85,122.826h65.702   l-32.569,56.485c-3.035,5.263-1.228,11.989,4.035,15.024c1.731,0.998,3.62,1.473,5.484,1.473c3.804,0,7.503-1.976,9.54-5.507   l38.906-67.475h137.296l-32.574,56.493c-3.035,5.263-1.229,11.989,4.035,15.024c1.731,0.998,3.62,1.473,5.484,1.473   c3.804,0,7.503-1.976,9.54-5.507l38.911-67.482h12.511c67.74,0,122.851-55.1,122.851-122.826   C512,144.579,456.89,89.479,389.149,89.479z M389.149,313.131H122.85C67.241,313.131,22,267.9,22,212.305   c0-47.208,33.455-88.66,79.547-98.566c3.855-0.828,6.972-3.657,8.169-7.413c16.08-50.437,62.487-84.324,115.479-84.324   c51.061,0,96.792,32.5,113.974,79.96c-8.417,4.1-16.391,9.163-23.706,15.162c-4.697,3.853-5.382,10.783-1.53,15.481   c2.175,2.652,5.33,4.025,8.512,4.025c2.454,0,4.924-0.817,6.969-2.495c17.623-14.453,39.864-22.598,62.599-22.613   C446.304,113.044,490,157.667,490,212.305C490,267.9,444.759,313.131,389.149,313.131z"/>
</g>















</svg>
