<?xml version="1.0" encoding="UTF-8"?>
<!-- Generator: Adobe Illustrator 24.2.3, SVG Export Plug-In . SVG Version: 6.00 Build 0)  -->
<svg xmlns="http://www.w3.org/2000/svg" xmlns:xlink="http://www.w3.org/1999/xlink" version="1.1" id="Capa_1" x="0px" y="0px" viewBox="0 0 512 512" style="enable-background:new 0 0 512 512;" xml:space="preserve" width="512" height="512">
<g>
	<path d="M373.155,78.729c-8.599,0-17.096,0.995-25.377,2.965c-8.411-21.819-22.911-41.269-41.596-55.561   C283.831,9.036,257.105,0,228.896,0c-27.549,0-53.769,8.656-75.825,25.034c-19.93,14.799-34.855,34.638-43.441,57.651   c-21.659,6.005-41.2,18.719-55.535,36.25c-15.904,19.45-24.663,44.021-24.663,69.187c0,60.319,49.083,109.393,109.414,109.393   h234.311c60.331,0,109.414-49.073,109.414-109.393C482.569,127.802,433.486,78.729,373.155,78.729z M373.155,275.515H138.845   c-48.2,0-87.414-39.204-87.414-87.393c0-40.918,28.997-76.849,68.948-85.434c3.854-0.829,6.971-3.657,8.169-7.414   C142.521,51.447,182.848,22,228.896,22c43.742,0,82.997,27.439,98.404,67.729c-7.514,4.072-14.01,8.861-19.816,13.623   c-4.698,3.853-5.384,10.783-1.531,15.48c2.175,2.652,5.331,4.025,8.512,4.025c2.454,0,4.924-0.816,6.969-2.494   c9.986-8.188,18.854-13.446,28.17-16.402c7.641-2.135,15.537-3.232,23.552-3.232c48.2,0,87.414,39.204,87.414,87.394   C460.569,236.311,421.355,275.515,373.155,275.515z"/>
	<g>
		<g>
			<path style="fill:#33CCCC;" d="M106.899,390.01c-6.708,0.153-12.288-6.594-10.79-13.151c1.146-6.607,8.835-10.747,14.99-8.01     c5.498,2.127,8.336,8.973,5.95,14.36c-0.542,1.338-1.364,2.559-2.38,3.57C112.647,388.826,109.775,390.004,106.899,390.01z"/>
			<path style="fill:#33CCCC;" d="M106.899,451c-7.572,0.229-13.299-8.288-10.159-15.2c2.122-5.493,8.947-8.323,14.359-5.95     c2.686,1.089,4.864,3.268,5.95,5.95C120.185,442.71,114.471,451.223,106.899,451z"/>
			<path style="fill:#33CCCC;" d="M106.899,512c-2.156,0.002-4.31-0.665-6.109-1.851c-9.889-6.765-3.526-22.126,8.26-19.939     c9.512,1.836,12.047,14.621,3.95,19.939C111.211,511.332,109.051,512.001,106.899,512z"/>
		</g>
		<g>
			<path style="fill:#33CCCC;" d="M228.89,390c-8.624,0.153-14.048-10.007-9.149-17.101c4.675-7.256,16.143-6.133,19.31,1.901     C242.144,381.777,236.514,390.187,228.89,390z"/>
			<path style="fill:#33CCCC;" d="M228.89,451c-3.615,0.026-7.154-1.87-9.149-4.891c-5.956-9.006,3.355-20.378,13.36-16.269     C244.08,434.293,240.747,451.075,228.89,451z"/>
			<path style="fill:#33CCCC;" d="M228.89,512c-1.439,0.003-2.87-0.302-4.21-0.84c-7.099-2.695-9.082-12.73-3.57-17.94     c3.574-3.666,9.666-4.259,13.891-1.37C243.969,497.899,239.698,511.954,228.89,512z"/>
		</g>
		<g>
			<path style="fill:#33CCCC;" d="M167.899,359.51c-2.881,0.004-5.751-1.195-7.79-3.22c-0.999-1.021-1.83-2.242-2.369-3.58     c-2.754-6.146,1.385-13.829,8-14.99c8.432-1.805,15.773,7.083,12.309,14.99C176.448,356.767,172.239,359.53,167.899,359.51z"/>
			<path style="fill:#33CCCC;" d="M167.899,420.5c-11.967-0.099-15.234-16.495-4.21-21.15c6.994-3.091,15.373,2.534,15.21,10.151     C179.005,415.392,173.799,420.624,167.899,420.5z"/>
			<path style="fill:#33CCCC;" d="M167.899,481.5c-9.703,0.071-14.671-11.958-7.79-18.78c5.278-5.503,15.202-3.542,17.94,3.571     C181.16,473.274,175.522,481.671,167.899,481.5z"/>
		</g>
		<g>
			<path style="fill:#33CCCC;" d="M289.89,359.51c-7.629,0.16-13.264-8.218-10.16-15.21c3.611-8.974,16.707-8.977,20.31,0     C303.148,351.283,297.515,359.669,289.89,359.51z"/>
			<path style="fill:#33CCCC;" d="M289.89,420.5c-6.724,0.176-12.27-6.588-10.79-13.151c1.153-6.609,8.859-10.751,14.99-8     c1.335,0.543,2.566,1.363,3.57,2.38C304.57,408.506,299.563,420.587,289.89,420.5z"/>
			<path style="fill:#33CCCC;" d="M289.89,481.5c-10.783,0.016-15.08-14.181-6.109-20.15c6.264-4.369,15.568-0.523,16.89,7     C302.162,474.903,296.607,481.663,289.89,481.5z"/>
		</g>
		<g>
			<path style="fill:#33CCCC;" d="M350.88,390.01c-2.868-0.002-5.754-1.186-7.771-3.229c-5.528-5.263-3.558-15.192,3.57-17.931     c6.155-2.734,13.845,1.399,14.99,8.01C363.154,383.423,357.595,390.165,350.88,390.01z"/>
			<path style="fill:#33CCCC;" d="M350.88,451c-9.677,0.083-14.677-11.997-7.771-18.771c1.011-1.017,2.233-1.837,3.57-2.38     c6.153-2.732,13.836,1.391,14.99,8C363.151,444.41,357.603,451.176,350.88,451z"/>
			<path style="fill:#33CCCC;" d="M350.88,512c-11.966-0.136-15.216-16.477-4.2-21.16c12.353-4.768,21.138,11.697,10.31,19.31     C355.191,511.335,353.036,512.002,350.88,512z"/>
		</g>
		<g>
			<path style="fill:#33CCCC;" d="M411.88,359.51c-9.684,0.053-14.671-11.963-7.78-18.78c6.007-6.203,17.021-2.846,18.57,5.63     c0.28,1.423,0.28,2.873,0,4.301C421.727,355.698,416.994,359.573,411.88,359.51z"/>
			<path style="fill:#33CCCC;" d="M411.88,420.5c-7.626,0.174-13.248-8.215-10.16-15.2c3.627-8.98,16.7-8.986,20.32,0     C425.16,412.212,419.456,420.736,411.88,420.5z"/>
			<path style="fill:#33CCCC;" d="M411.88,481.5c-9.566,0.205-14.708-12.147-7.78-18.78c0.51-0.5,1.07-0.96,1.67-1.37     c5.505-3.852,13.854-1.343,16.271,4.94c2.73,6.154-1.382,13.839-8.01,15C413.319,481.43,412.6,481.5,411.88,481.5z"/>
		</g>
	</g>
</g>















</svg>
