<?xml version="1.0" encoding="UTF-8"?>
<!-- Generator: Adobe Illustrator 24.2.3, SVG Export Plug-In . SVG Version: 6.00 Build 0)  -->
<svg xmlns="http://www.w3.org/2000/svg" xmlns:xlink="http://www.w3.org/1999/xlink" version="1.1" id="Capa_1" x="0px" y="0px" viewBox="0 0 512 512" style="enable-background:new 0 0 512 512;" xml:space="preserve" width="512" height="512">
<g>
	<path d="M389.149,89.482c-10.101,0-20.074,1.222-29.773,3.64c-9.385-25.042-25.887-47.382-47.255-63.726   c-25.139-19.228-55.197-29.392-86.926-29.392c-30.984,0-60.475,9.736-85.282,28.156c-22.624,16.799-39.514,39.37-49.127,65.561   c-24.612,6.656-46.836,21.02-63.096,40.905C9.834,156.465,0,184.052,0,212.308c0,67.727,55.11,122.826,122.851,122.826h18.901   c6.075,0,11-4.925,11-11s-4.925-11-11-11h-18.901C67.241,313.134,22,267.904,22,212.308c0-47.208,33.454-88.66,79.548-98.566   c3.854-0.828,6.971-3.657,8.169-7.413c16.08-50.437,62.487-84.324,115.479-84.324c50.746,0,96.238,32.097,113.662,79.081   c-8.721,4.628-16.324,10.244-23.394,16.041c-4.697,3.852-5.383,10.783-1.53,15.481c2.176,2.652,5.331,4.025,8.513,4.025   c2.453,0,4.923-0.817,6.969-2.495c10.164-8.335,20.133-14.94,31.997-18.768c8.988-2.568,18.29-3.887,27.737-3.887   c55.609,0,100.851,45.23,100.851,100.826s-45.241,100.826-100.851,100.826h-51.271c-6.075,0-11,4.925-11,11s4.925,11,11,11h51.271   c67.74,0,122.851-55.099,122.851-122.826C512,144.582,456.89,89.482,389.149,89.482z"/>
	<path style="fill:#33CCCC;" d="M205.41,511.995c-1.638,0-3.294-0.366-4.846-1.128c-4.775-2.347-7.187-7.774-5.727-12.891   l36.986-129.623H130.993c-3.724,0-7.194-1.883-9.223-5.005c-2.029-3.122-2.342-7.058-0.83-10.46l74.244-167.116   c1.766-3.973,5.705-6.534,10.053-6.534h102.161c3.821,0,7.369,1.984,9.371,5.239c2.001,3.256,2.169,7.317,0.444,10.727   l-42.751,84.486h86.086c4.15,0,7.948,2.336,9.819,6.042s1.497,8.148-0.967,11.488L214.269,507.524   C212.136,510.415,208.813,511.995,205.41,511.995z M147.917,346.354h98.485c3.451,0,6.702,1.62,8.78,4.375   c2.079,2.754,2.744,6.325,1.798,9.644l-24.286,85.113l106.071-143.794h-82.197c-3.821,0-7.369-1.983-9.371-5.239   c-2.001-3.256-2.169-7.317-0.444-10.727l42.751-84.486h-77.117L147.917,346.354z"/>
</g>















</svg>
