<?xml version="1.0" encoding="UTF-8"?>
<!-- Generator: Adobe Illustrator 24.2.3, SVG Export Plug-In . SVG Version: 6.00 Build 0)  -->
<svg xmlns="http://www.w3.org/2000/svg" xmlns:xlink="http://www.w3.org/1999/xlink" version="1.1" id="Capa_1" x="0px" y="0px" viewBox="0 0 512 512" style="enable-background:new 0 0 512 512;" xml:space="preserve" width="512" height="512">
<g>
	<g>
		<path d="M82.759,440.241c-2.815,0-5.63-1.074-7.778-3.222c-4.295-4.296-4.295-11.261,0-15.557l64.965-64.965l15.557,15.557    L90.537,437.02C88.389,439.167,85.574,440.241,82.759,440.241z"/>
		<path d="M102.875,267.002H11c-6.075,0-11-4.925-11-11s4.925-11,11-11h91.875V267.002z"/>
		<path d="M139.946,155.503L74.98,90.537c-4.295-4.296-4.295-11.261,0-15.557c4.296-4.296,11.26-4.296,15.557,0l64.965,64.966    L139.946,155.503z"/>
		<path d="M245.015,102.875V11.582C245.005,11.389,245,11.195,245,11c0-6.075,4.925-11,11-11c0.098,0,0.198,0.001,0.298,0.004    c5.944,0.15,10.717,5.016,10.717,10.997v91.875H245.015z"/>
		<path d="M356.498,139.946l64.965-64.966c4.296-4.296,11.261-4.296,15.557,0c4.295,4.296,4.295,11.261,0,15.557l-64.965,64.966    L356.498,139.946z"/>
		<path d="M501,267.002h-91.875v-22h91.709C506.977,244.932,512,249.87,512,256C512,262.075,507.075,267.002,501,267.002z"/>
		<path d="M429.241,440.241c-2.815,0-5.63-1.074-7.778-3.222l-64.965-64.965l15.557-15.557l64.965,64.965    c4.295,4.296,4.295,11.261,0,15.557C434.872,439.167,432.056,440.241,429.241,440.241z"/>
		<path d="M256.015,512c-6.075,0-11-4.925-11-11v-91.875h22V501C267.015,507.075,262.09,512,256.015,512z"/>
	</g>
	<path style="fill:#33CCCC;" d="M443.953,321.957l-32.627-13.515c5.569-16.474,8.592-34.112,8.592-52.442   c0-18.323-3.028-35.95-8.595-52.418l32.637-13.518c5.613-2.325,8.278-8.759,5.953-14.372c-2.324-5.612-8.758-8.279-14.372-5.953   l-32.644,13.521c-15.932-32.082-42.057-58.245-74.11-74.229l13.623-32.889c2.325-5.613-0.34-12.047-5.953-14.372   c-5.614-2.326-12.048,0.34-14.372,5.953l-13.598,32.829c-16.546-5.624-34.27-8.677-52.694-8.677   c-18.28,0-35.869,3.007-52.305,8.547l-13.5-32.591c-2.324-5.612-8.758-8.279-14.372-5.953c-5.613,2.325-8.278,8.759-5.953,14.372   l13.503,32.598c-32.173,15.944-58.401,42.129-74.398,74.27l-32.315-13.385c-5.613-2.326-12.047,0.34-14.372,5.953   s0.34,12.047,5.953,14.372l32.269,13.366c-5.598,16.512-8.635,34.196-8.635,52.576c0,18.387,3.039,36.078,8.642,52.596   l-32.269,13.366c-5.613,2.325-8.278,8.759-5.953,14.372c1.754,4.236,5.85,6.793,10.167,6.793c1.402,0,2.829-0.27,4.205-0.84   l32.317-13.386c15.996,32.127,42.213,58.302,74.372,74.243l-13.503,32.598c-2.325,5.613,0.34,12.047,5.953,14.372   c1.376,0.57,2.802,0.84,4.205,0.84c4.316,0,8.413-2.558,10.167-6.793l13.499-32.588c16.44,5.544,34.036,8.553,52.322,8.553   c18.43,0,36.16-3.055,52.712-8.683l13.527,32.657c1.754,4.236,5.85,6.793,10.167,6.793c1.402,0,2.829-0.27,4.205-0.84   c5.613-2.325,8.278-8.759,5.953-14.372l-13.552-32.719c32.04-15.982,58.148-42.134,74.077-74.205l32.654,13.526   c1.377,0.57,2.802,0.84,4.205,0.84c4.316,0,8.413-2.558,10.167-6.793C452.231,330.716,449.566,324.281,443.953,321.957z    M255.792,398.125c-78.368,0-142.125-63.757-142.125-142.125s63.757-142.125,142.125-142.125S397.917,177.632,397.917,256   S334.161,398.125,255.792,398.125z"/>
</g>















</svg>
